<svg width="76" height="76" fill="none" xmlns="http://www.w3.org/2000/svg"><g clip-path="url(#clip0)"><path d="M49.005 61.898c-1.597-2.083-3.459-3.84-5.394-5.456 5.183-4.338 9.78-9.657 9.78-18.442 0-4.89-1.434-9.139-4.386-12.988-1.596-2.083-3.459-3.84-5.394-5.457 5.203-4.361 9.78-9.712 9.78-18.442a1.113 1.113 0 10-2.226 0c0 8.383-4.693 13.212-9.318 17.014-.57-.45-1.14-.892-1.708-1.332-5.593-4.334-10.07-7.803-10.51-14.568h16.746c-.089 1.5-.393 3.138-1.236 4.912H35.62a1.113 1.113 0 000 2.227h8.204c-.764 1.079-1.745 2.202-3.01 3.37a1.114 1.114 0 001.511 1.635c3.119-2.88 6.307-6.708 6.307-13.258C48.632.5 48.134 0 47.52 0H28.481c-.615 0-1.114.499-1.114 1.113 0 8.602 5.542 12.896 11.41 17.443 2.996 2.323 6.095 4.725 8.461 7.81 2.643 3.447 3.927 7.252 3.927 11.634 0 3.839-.97 7.2-2.968 10.278-1.791 2.76-4.176 4.946-6.35 6.736-.57-.45-1.14-.892-1.708-1.332l-.34-.263c4.925-3.973 8.833-8.083 8.833-15.419 0-8.602-5.541-12.896-11.408-17.442-2.997-2.323-6.096-4.725-8.463-7.811C26.12 9.3 24.834 5.495 24.834 1.113a1.113 1.113 0 00-2.226 0c0 4.89 1.435 9.14 4.386 12.989 1.597 2.082 3.46 3.84 5.395 5.456-5.193 4.35-9.781 9.683-9.781 18.442 0 4.89 1.435 9.14 4.386 12.989 1.597 2.082 3.46 3.84 5.395 5.456-5.194 4.35-9.781 9.686-9.781 18.442a1.113 1.113 0 002.226 0c0-8.413 4.708-13.224 9.319-17.014.57.45 1.14.892 1.707 1.332 5.593 4.334 10.07 7.803 10.51 14.568H29.625c.088-1.5.393-3.138 1.236-4.912h9.519a1.113 1.113 0 000-2.227h-8.205c.764-1.079 1.746-2.202 3.01-3.37a1.113 1.113 0 00-1.51-1.635c-3.12 2.88-6.308 6.709-6.308 13.258 0 .614.499 1.113 1.114 1.113h19.038c.615 0 1.113-.499 1.113-1.113 0-8.602-5.541-12.896-11.408-17.442-2.997-2.323-6.096-4.724-8.463-7.81-2.642-3.447-3.927-7.253-3.927-11.635 0-8.416 4.71-13.225 9.319-17.014.57.45 1.14.892 1.707 1.332l.34.263C31.272 26.56 27.368 30.678 27.368 38c0 8.602 5.541 12.896 11.408 17.442 2.997 2.322 6.096 4.724 8.462 7.81 2.643 3.447 3.928 7.252 3.928 11.635a1.113 1.113 0 002.226 0c0-4.891-1.435-9.14-4.387-12.99zM38.001 23.99c2.335 1.86 4.371 3.657 5.856 5.756H32.15c1.488-2.105 3.528-3.905 5.85-5.756zm-7.149 7.983h14.303c.669 1.446 1.091 3.056 1.212 4.913H29.632c.122-1.855.549-3.465 1.22-4.913zm-1.22 7.14h16.736c-.122 1.855-.548 3.465-1.218 4.912H30.845c-.669-1.446-1.091-3.056-1.212-4.913zM38 52.008c-2.335-1.86-4.372-3.657-5.856-5.756h11.71c-1.489 2.106-3.53 3.905-5.854 5.756z" fill="#0376C4"/></g><defs><clipPath id="clip0"><path fill="#fff" d="M0 0h76v76H0z"/></clipPath></defs></svg>