<svg width="23" height="23" fill="none" xmlns="http://www.w3.org/2000/svg"><path d="M22.854 11.053C22.648 10.77 17.753 4.17 11.5 4.17 5.247 4.17.35 10.771.146 11.052a.759.759 0 000 .895c.205.281 5.101 6.883 11.354 6.883 6.253 0 11.148-6.602 11.354-6.882a.758.758 0 000-.895zM11.5 17.313c-4.606 0-8.595-4.381-9.776-5.814 1.18-1.433 5.16-5.812 9.776-5.812 4.605 0 8.594 4.38 9.776 5.814-1.18 1.433-5.16 5.812-9.776 5.812z" fill="#fff"/><path d="M11.5 6.95a4.555 4.555 0 00-4.55 4.55 4.555 4.555 0 004.55 4.55 4.556 4.556 0 004.55-4.55 4.555 4.555 0 00-4.55-4.55zm0 7.583A3.036 3.036 0 018.467 11.5 3.036 3.036 0 0111.5 8.467a3.036 3.036 0 013.033 3.033 3.036 3.036 0 01-3.033 3.033z" fill="#fff"/></svg>