<svg width="76" height="76" fill="none" xmlns="http://www.w3.org/2000/svg"><path d="M39.438 73.946c-2.718.01-5.417-.46-7.972-1.388-9.159-3.357-15.269-8.644-18.158-15.713-4.742-11.605.889-23.7 1.13-24.208a1.027 1.027 0 011.917.165 13.528 13.528 0 004.211 5.994c2.351-11.799 12.643-18.938 13.1-19.252 6.64-5.316 1.217-15.878 1.162-15.983a1.027 1.027 0 011.555-1.275c18.289 14.84 17.237 29.788 15.761 35.93a9.963 9.963 0 003.726-9.217 1.027 1.027 0 011.867-.719 46.538 46.538 0 014.8 9.883 28.066 28.066 0 01-4.818 27.08l-.22.269a23.313 23.313 0 01-18.061 8.434zm-7.265-3.316a21.047 21.047 0 007.265 1.262 21.27 21.27 0 0016.473-7.686l.206-.257a26.026 26.026 0 004.477-25.106 46.552 46.552 0 00-2.76-6.315c-1.13 6.18-7.042 9.053-7.114 9.087a1.027 1.027 0 01-1.368-1.367c.324-.696 7.394-16.535-11.215-33.728 1.187 4.115 1.896 10.551-3.257 14.674-.172.12-11.079 7.709-12.568 19.616a1.027 1.027 0 01-1.596.719 19.06 19.06 0 01-5.31-5.728c-1.35 3.945-3.432 12.367-.192 20.275 2.664 6.506 8.37 11.4 16.958 14.548v.006z" fill="#0376C4"/><path d="M35.062 73.527c-.242 0-.477-.086-.662-.241-13.087-11.033-3.866-25.141-3.772-25.282a1.027 1.027 0 011.878.508 6.889 6.889 0 001.603 4.304 20.872 20.872 0 019.053-20.18 1.027 1.027 0 011.43 1.359 7.13 7.13 0 00-.828 3.476 7.538 7.538 0 001.29 3.94l.41.628a64.384 64.384 0 004.417 5.815 18.107 18.107 0 012.915 4.964C57.944 63.43 49.1 71.795 49.013 71.88a1.027 1.027 0 01-1.397-1.506c.322-.3 7.831-7.456 3.31-16.705a1.002 1.002 0 01-.046-.112 16.148 16.148 0 00-2.58-4.39 66.274 66.274 0 01-4.557-6.003l-.41-.628a9.593 9.593 0 01-1.625-5.022c-.009-.4.01-.8.053-1.198-2.958 2.796-7.292 8.75-5.248 18.486a1.028 1.028 0 01-1.303 1.195 7.014 7.014 0 01-4.17-4.403c-1.822 4.149-4.006 12.797 4.682 20.123a1.027 1.027 0 01-.662 1.813l.002-.003z" fill="#0376C4"/></svg>