<svg width="15" height="14" fill="none" xmlns="http://www.w3.org/2000/svg"><path d="M3.226 4.409H.176v9.16h3.05v-9.16zM1.72 0C1.207 0 .792.15.475.448A1.488 1.488 0 000 1.581c0 .45.154.825.462 1.127.308.302.715.453 1.22.453h.019c.517 0 .935-.15 1.252-.453.317-.302.473-.678.467-1.127-.006-.457-.164-.834-.472-1.133C2.64.15 2.231 0 1.72 0zm11.516 5.245c-.641-.699-1.489-1.049-2.542-1.049-.388 0-.741.048-1.059.144-.317.095-.585.23-.804.402a3.943 3.943 0 00-.522.48c-.123.14-.243.304-.36.49V4.408H4.908l.009.443c.006.296.01 1.208.01 2.736 0 1.528-.007 3.522-.02 5.98H7.95v-5.11c0-.314.033-.564.101-.749.13-.314.325-.577.587-.79.262-.213.587-.319.976-.319.53 0 .92.183 1.169.55.25.367.374.874.374 1.52v4.9h3.04v-5.25c0-1.35-.32-2.374-.96-3.074z" fill="#EDF5FB"/></svg>