<svg width="62" height="62" fill="none" xmlns="http://www.w3.org/2000/svg"><g clip-path="url(#clip0)"><path d="M61.093 1.714l-.822-.822a3.174 3.174 0 00-4.385 0l-3.14 3.14C49.694 7.084 46.03 8.295 41.79 9.699c-5.916 1.956-12.62 4.174-20.261 11.814-7.64 7.64-9.858 14.345-11.815 20.261-1.403 4.241-2.615 7.904-5.667 10.956l-3.14 3.14a3.104 3.104 0 000 4.385l.823.823a3.1 3.1 0 004.384 0l3.14-3.14c3.052-3.052 6.716-4.264 10.956-5.667 5.916-1.957 12.62-4.175 20.261-11.815 7.64-7.64 9.859-14.345 11.815-20.26 1.403-4.242 2.615-7.905 5.667-10.957l3.14-3.14a3.104 3.104 0 000-4.385zM4.653 59.617c-.408.39-1.052.39-1.46 0H3.19l-.823-.823a1.035 1.035 0 010-1.462l2.41-2.41.517.517v.001l.002.001 1.766 1.766-2.41 2.41zm3.894-9.48a42.683 42.683 0 003.128-7.713c1.885-5.698 4.022-12.156 11.315-19.45 7.293-7.293 13.751-9.43 19.449-11.314a42.712 42.712 0 007.708-3.125c-2.28 1.681-4.83 3.255-7.474 4.884-5.263 3.242-11.227 6.918-16.775 12.465-5.546 5.546-9.22 11.51-12.463 16.772-1.63 2.646-3.205 5.2-4.888 7.481zM49.486 13.96a213.53 213.53 0 00-2.68 4.27c-3.183 5.165-6.791 11.019-12.166 16.394C29.264 40 23.41 43.608 18.243 46.791c-1.46.9-2.887 1.784-4.267 2.68l35.51-35.51zM12.514 48.01a210.19 210.19 0 002.68-4.27c3.183-5.165 6.791-11.02 12.166-16.395 5.376-5.376 11.231-8.983 16.397-12.167 1.46-.9 2.888-1.783 4.268-2.68L12.515 48.01zm37.81-28.464c-1.885 5.698-4.02 12.156-11.314 19.449-7.293 7.293-13.751 9.43-19.449 11.314a42.707 42.707 0 00-7.708 3.125c2.28-1.681 4.83-3.254 7.474-4.883 5.263-3.243 11.227-6.918 16.774-12.465 5.547-5.547 9.221-11.51 12.464-16.773 1.63-2.646 3.205-5.2 4.888-7.48a42.658 42.658 0 00-3.128 7.713zm9.308-14.908l-2.41 2.41-.517-.517v-.002l-.002-.001-1.766-1.765 2.41-2.41a1.058 1.058 0 011.462 0l.823.823a1.036 1.036 0 010 1.462z" fill="#0376C4"/></g><defs><clipPath id="clip0"><path fill="#fff" d="M0 0h62v62H0z"/></clipPath></defs></svg>