<svg width="57" height="72" fill="none" xmlns="http://www.w3.org/2000/svg"><path d="M55.353 14.578L28.293.158a1.344 1.344 0 00-1.282.008L.7 14.586a1.346 1.346 0 00-.699 1.181v18.836a39 39 0 0023.375 35.693l3.653 1.592c.34.149.73.15 1.072.001l4.115-1.777a38.923 38.923 0 0023.851-35.883V15.767c0-.497-.274-.955-.713-1.189zm-1.981 19.651A36.235 36.235 0 0131.16 67.633l-.009.005-3.584 1.547-3.114-1.358a36.302 36.302 0 01-21.76-33.224V16.565L27.668 2.878l25.705 13.697v17.654z" fill="#0376C4"/><path d="M48.742 19.694L28.207 8.784a1.023 1.023 0 00-.972.005L7.27 19.699a1.02 1.02 0 00-.531.895v14.252c.012 11.716 6.973 22.315 17.738 27.01l2.772 1.203c.259.113.554.114.813.002l3.123-1.345c10.965-4.592 18.098-15.294 18.1-27.152v-13.97a1.02 1.02 0 00-.542-.9zm-1.503 14.87c-.003 11.04-6.646 21.003-16.855 25.276l-.007.004-2.72 1.17-2.363-1.028c-10.02-4.368-16.5-14.234-16.512-25.14V21.198L27.733 10.84 47.24 21.205v13.359z" fill="#0376C4"/><rect x="26.952" y="27.337" width="2.31" height="17.134" rx="1.155" fill="#0376C4"/><rect x="19.444" y="37.155" width="2.31" height="17.134" rx="1.155" transform="rotate(-90 19.444 37.155)" fill="#0376C4"/></svg>