<svg width="15" height="13" fill="none" xmlns="http://www.w3.org/2000/svg"><path d="M15 1.544c-.59.27-1.18.44-1.77.508A3.157 3.157 0 0014.58.244c-.609.386-1.26.65-1.95.792C12.02.346 11.271 0 10.383 0c-.85 0-1.575.32-2.175.96-.6.64-.9 1.413-.9 2.32 0 .244.026.495.077.752a8.15 8.15 0 01-3.536-1.01A8.852 8.852 0 011.047.598a3.38 3.38 0 00-.419 1.656c0 .562.124 1.083.371 1.564.248.48.581.87 1 1.168a2.906 2.906 0 01-1.39-.417v.04c0 .793.233 1.489.7 2.088.466.6 1.055.977 1.765 1.132a2.996 2.996 0 01-.809.112c-.178 0-.371-.017-.58-.05a3.213 3.213 0 001.085 1.62 2.88 2.88 0 001.789.655C3.442 11.1 2.17 11.568.742 11.568c-.272 0-.52-.013-.742-.04A8.152 8.152 0 004.72 13a8.475 8.475 0 003.075-.553c.958-.37 1.777-.864 2.456-1.483a9.76 9.76 0 001.756-2.138 9.906 9.906 0 001.451-5.586A6.69 6.69 0 0015 1.544z" fill="#EDF5FB"/></svg>