<svg width="21" height="15" fill="none" xmlns="http://www.w3.org/2000/svg"><path d="M20.108 1.391C19.538.378 18.92.191 17.66.121 16.404.035 13.241 0 10.503 0 7.758 0 4.595.035 3.339.12 2.083.191 1.463.376.889 1.39.302 2.403 0 4.146 0 7.215v.01c0 3.056.302 4.812.889 5.813.574 1.014 1.193 1.197 2.449 1.283 1.257.073 4.42.117 7.165.117 2.739 0 5.9-.044 7.16-.116 1.258-.085 1.876-.27 2.446-1.282.592-1.002.891-2.758.891-5.813v-.011c0-3.07-.3-4.813-.892-5.825zM7.875 11.156V3.281l6.563 3.938-6.563 3.937z" fill="#fff"/></svg>