<svg width="239" height="85" fill="none" xmlns="http://www.w3.org/2000/svg"><g clip-path="url(#clip0)" fill="#fff"><path d="M73.821 31.507c-7.387-6.693-16.407-11.24-27.23-14.157-.773-1.287.602-3.432 0-4.72-.257-.6-1.03-.772-1.632-.514-1.632.858-3.092 3.089-4.209 4.633-13.572.343-22.075 6.092-27.916 14.329-2.92 4.118-5.068 9.266-5.67 15.444-.687 6.435.86 12.87 3.179 17.761 4.38 9.267 12.884 16.216 24.05 18.19 13.315 2.317 23.709-3.346 30.151-10.296.172-.258.172-.515-.086-.772-.687-.601-1.804-.515-2.49.085-6.186 6.007-15.205 10.811-27.145 8.666-9.878-1.63-18.124-8.065-22.247-16.73-2.233-4.634-3.522-10.383-3.007-16.132.43-5.748 2.32-10.553 5.068-14.5 5.326-7.808 14.431-14.071 27.574-13.557.43-1.458 1.288-3.088 2.147-3.775-.086 1.287.172 2.317.344 3.432 10.136 2.917 19.327 6.693 26.37 12.699.773.686 2.749 2.059 2.663 2.917-.086.686-1.46 1.287-1.89 1.973-.859 1.287-.687 2.746-1.975 3.09-.86.257-2.405-.258-3.694-.516-3.78-.858-6.872-2.402-10.737-2.66-3.694-.257-5.841 1.288-7.989 2.403-1.46.772-2.92 1.373-4.638 1.63-3.694.6-7.473-.6-9.62-2.574-.43-.429-1.46-2.745-2.406-1.887-.43.429.43 1.716.687 2.145.773 1.115 1.031 1.373 1.633 1.887 2.061 1.716 6.528 3.346 10.737 2.574 3.607-.686 6.7-3.089 10.48-3.432 3.177-.257 6.356.515 8.76 1.116 2.32.6 5.756 2.059 8.161 1.115 1.374-.515 1.632-1.973 2.577-3.346.773-1.03 2.061-1.716 2.147-3.003.258-1.373-1.116-2.574-2.147-3.518z" stroke="#fff" stroke-miterlimit="10"/><path d="M99.3 29.6v6h8.4v4.6h-8.4v7.3h8.7v4.6H94V25h14v4.6h-8.7zm37.3 4.9v9.6c0 .6 0 1.1.1 1.6s.2.9.4 1.4c.2.4.5.8.9 1 .4.3.9.4 1.5.4s1.1-.1 1.5-.4c.4-.3.7-.6.9-1 .2-.4.3-.9.4-1.4.1-.5.1-1 .1-1.6v-9.6h5v10.4c0 5.2-2.6 7.8-7.9 7.8-5.3 0-7.9-2.6-7.9-7.8V34.5h5zm19.2-9.6c.6.6.9 1.3.9 2.1s-.3 1.5-.9 2.1c-.6.6-1.3.9-2.1.9s-1.5-.3-2.1-.9c-.6-.6-.9-1.2-.9-2.1 0-.8.3-1.5.9-2.1.6-.6 1.3-.9 2.1-.9.8.1 1.6.4 2.1.9zm.5 27.2h-5V34.5h5v17.6zm12.7 0h-5.3V29.6h-5.5V25h16.2v4.6h-5.5v22.5h.1zm9.5-15.8c1.1-1.6 2.6-2.4 4.5-2.4.6 0 1.3.1 2.1.4l-.6 4.7c-.6-.4-1.3-.6-2.1-.6s-1.5.2-2 .5-.9.8-1.2 1.3c-.3.6-.4 1.2-.5 1.8-.1.6-.1 1.4-.1 2.2v8h-5V34.5h5v1.8h-.1zm20-1.7c1.1.5 2.1 1.1 3 2 .8.9 1.5 1.9 1.9 3 .4 1.2.7 2.4.7 3.8s-.2 2.6-.7 3.8c-.4 1.1-1.1 2.1-1.9 3-.8.9-1.8 1.5-3 2s-2.4.7-3.8.7-2.6-.2-3.8-.7c-1.1-.5-2.1-1.1-3-2-.8-.9-1.5-1.8-1.9-3-.4-1.1-.7-2.4-.7-3.8s.2-2.6.7-3.8c.4-1.2 1.1-2.2 1.9-3 .8-.9 1.8-1.5 3-2 1.1-.5 2.4-.7 3.8-.7s2.6.2 3.8.7zm-6.8 5.3c-.8 1-1.2 2.2-1.2 3.5 0 1.3.4 2.4 1.2 3.4.8 1 1.8 1.5 3 1.5s2.2-.5 3-1.5c.8-1 1.2-2.1 1.2-3.4 0-1.3-.4-2.4-1.2-3.5-.8-1-1.8-1.5-3-1.5-1.2-.1-2.2.5-3 1.5zm19.7-3.8c.6-.7 1.2-1.3 2-1.7.8-.4 1.7-.5 2.6-.5 1.2 0 2.1.2 2.9.6.8.4 1.4.9 1.9 1.6.5.7.8 1.5 1 2.4.2.9.3 1.9.3 3v10.8h-5v-9.4c0-.8 0-1.4-.1-2 0-.5-.2-1-.3-1.5-.1-.5-.4-.8-.8-1-.4-.2-.9-.4-1.5-.4-.7 0-1.3.2-1.7.5-.4.3-.7.8-.9 1.3-.2.5-.3 1.1-.4 1.7 0 .6-.1 1.2-.1 1.9v8.7h-5V34.5h5v1.6h.1zm-93.54 15.11c1.632 0 3.872-.512 5.248-2.336v8.096h4.96V34.73h-4.96v2.176c-1.376-1.824-3.616-2.336-5.248-2.336-4.032 0-7.2 2.816-7.2 8.32 0 5.184 3.168 8.32 7.2 8.32zm1.504-12.736c2.4 0 3.744 1.856 3.744 4.416 0 2.592-1.344 4.416-3.744 4.416-2.4 0-3.744-1.824-3.744-4.416 0-2.56 1.344-4.416 3.744-4.416zM94.3 70.8h4.8V67h1v9.3h-1v-4.6h-4.8v4.6h-1V67h1v3.8zm8.5-3.2c.4 0 .7.3.7.7 0 .4-.3.7-.7.7-.4 0-.7-.3-.7-.7 0-.4.3-.7.7-.7zm.5 2.9v5.8h-1v-5.8h1zm6.4 0h1v5.7c0 .6 0 1.5-.6 2.3-.4.6-1.2 1.1-2.3 1.1-1 0-1.7-.4-2.1-.8-.4-.4-.8-1-.8-1.9h1c0 .5.2.9.4 1.2.4.5 1 .6 1.4.6.7 0 1.2-.3 1.5-.8.3-.5.3-1 .3-1.5v-.8c-.3.4-1 1-2 1-.9 0-1.5-.3-2-.8-.4-.4-.8-1.1-.8-2.3 0-1.1.4-1.8.8-2.3.5-.5 1.2-.8 2-.8.9 0 1.5.4 2 1v-.9h.2zm-3.2 1.3c-.5.5-.6 1.1-.6 1.6s.1 1.2.7 1.7c.3.3.7.5 1.2.5s1-.2 1.3-.5c.4-.4.7-1 .7-1.7s-.3-1.3-.6-1.6c-.3-.3-.8-.5-1.3-.5-.7 0-1.1.2-1.4.5zm6.1-5.7h1v5.1c.2-.2.7-.8 1.7-.8.7 0 1.3.3 1.7.8.3.4.3.9.3 1.6v3.6h-1v-3.6c0-.3 0-.8-.3-1.1-.2-.3-.5-.4-1-.4-.4 0-.7.1-1 .4-.4.5-.4 1.1-.4 1.6v3h-1V66.1zm14.9 1.9h-3.8v2.8h3.7v1h-3.7v3.6h3.8v1h-4.8v-9.3h4.8v.9zm1.7 2.5h1v.7c.2-.2.7-.8 1.7-.8.7 0 1.3.3 1.7.8.3.4.3.9.3 1.6v3.6h-1v-3.6c0-.3 0-.8-.3-1.1-.2-.3-.5-.4-1-.4-.4 0-.7.1-1 .4-.4.5-.4 1.1-.4 1.6v3h-1v-5.8zm11.7 4.3c-.2.3-.4.7-.7.9-.5.5-1.2.7-1.9.7-1.4 0-2.9-.9-2.9-3 0-1.7 1.1-3.1 2.8-3.1 1.1 0 1.8.6 2.2 1.1.4.5.6 1.4.5 2.2h-4.5c0 1.2.8 2 1.8 2 .5 0 .9-.1 1.2-.4.3-.2.5-.5.6-.8l.9.4zm-1-2c-.2-.9-.9-1.5-1.7-1.5-.8 0-1.6.6-1.7 1.5h3.4zm2.6-2.3h1v.6c.1-.2.5-.8 1.3-.8.3 0 .6.1.9.2l-.5.9c-.2-.2-.4-.2-.6-.2-.4 0-.7.2-.8.4-.2.2-.3.6-.3 1.6v3.1h-1v-5.8zm8.3 0h1v5.7c0 .6 0 1.5-.6 2.3-.4.6-1.2 1.1-2.3 1.1-1 0-1.7-.4-2.1-.8-.4-.4-.8-1-.8-1.9h1c0 .5.2.9.4 1.2.4.5 1 .6 1.4.6.7 0 1.2-.3 1.5-.8.3-.5.3-1 .3-1.5v-.8c-.3.4-1 1-2 1-.9 0-1.5-.3-2-.8-.4-.4-.8-1.1-.8-2.3 0-1.1.4-1.8.8-2.3.5-.5 1.2-.8 2-.8.9 0 1.5.4 2 1v-.9h.2zm-3.2 1.3c-.5.5-.6 1.1-.6 1.6s.1 1.2.7 1.7c.3.3.7.5 1.2.5s1-.2 1.3-.5c.4-.4.7-1 .7-1.7s-.3-1.3-.6-1.6c-.3-.3-.8-.5-1.3-.5-.7 0-1.1.2-1.4.5zm7.9 4l-2.7-5.3h1.1l2.1 4.2 1.9-4.2h1.1l-4.3 9h-1l1.8-3.7zm15.3-6.8c-.3-.3-.7-.6-1.2-.9-.5-.2-1.1-.4-1.6-.4-2.2 0-3.8 1.7-3.8 3.9 0 2.5 2.1 3.8 3.8 3.8.6 0 1.2-.2 1.7-.4.5-.3.9-.6 1.1-.8v1.3c-1 .7-2.1.9-2.8.9-2.8 0-4.8-2.1-4.8-4.8 0-2.8 2.1-4.9 4.9-4.9.6 0 1.6.1 2.8.9V69h-.1zm6.8 5.8c-.2.3-.4.7-.7.9-.5.5-1.2.7-1.9.7-1.4 0-2.9-.9-2.9-3 0-1.7 1.1-3.1 2.8-3.1 1.1 0 1.8.6 2.2 1.1.4.5.6 1.4.5 2.2h-4.5c0 1.2.8 2 1.8 2 .5 0 .9-.1 1.2-.4.3-.2.5-.5.6-.8l.9.4zm-1-2c-.2-.9-.9-1.5-1.7-1.5-.8 0-1.6.6-1.7 1.5h3.4zm3.6-6.7v10.2h-1V66.1h1zm2.9 0v10.2h-1V66.1h1zm7.7 1.9v8.4h-1V68h-2.3v-1h5.6v1h-2.3zm2.4 2.5h1v.6c.1-.2.5-.8 1.3-.8.3 0 .6.1.9.2l-.5.9c-.2-.2-.4-.2-.6-.2-.4 0-.7.2-.8.4-.2.2-.3.6-.3 1.6v3.1h-1v-5.8zm9 4.3c-.2.3-.4.7-.7.9-.5.5-1.2.7-1.9.7-1.4 0-2.9-.9-2.9-3 0-1.7 1.1-3.1 2.8-3.1 1.1 0 1.8.6 2.2 1.1.4.5.6 1.4.5 2.2h-4.5c0 1.2.8 2 1.8 2 .5 0 .9-.1 1.2-.4.3-.2.5-.5.6-.8l.9.4zm-1-2c-.2-.9-.9-1.5-1.7-1.5-.8 0-1.6.6-1.7 1.5h3.4zm7-2.3h1v5.8h-1v-.8c-.3.4-1 1-2 1-1.5 0-2.8-1-2.8-3.1 0-2 1.3-3 2.8-3 1.1 0 1.7.6 2 1v-.9zm-3.8 2.9c0 1.2.7 2.2 1.9 2.2s1.9-1 1.9-2.2c0-1.5-1-2.2-1.9-2.2-1 .1-1.9.8-1.9 2.2zm7.7-2v4.9h-1v-4.9h-.6v-.9h.6v-2.1h1v2.1h1v.9h-1zm2-.9h1v.6c.3-.5.8-.8 1.4-.8 1.1 0 1.5.7 1.6.9.6-.9 1.4-.9 1.8-.9 1.7 0 1.9 1.4 1.9 2.3v3.7h-1v-3.5c0-.7-.1-1.5-1-1.5-1.2 0-1.3 1.1-1.3 1.8v3.2h-1v-3.4c0-.4 0-1.6-1-1.6-1.1 0-1.3 1.2-1.3 1.9v3.2h-1v-5.9h-.1zm14.7 4.3c-.2.3-.4.7-.7.9-.5.5-1.2.7-1.9.7-1.4 0-2.9-.9-2.9-3 0-1.7 1.1-3.1 2.8-3.1 1.1 0 1.8.6 2.2 1.1.4.5.6 1.4.5 2.2h-4.5c0 1.2.8 2 1.8 2 .5 0 .9-.1 1.2-.4.3-.2.5-.5.6-.8l.9.4zm-1-2c-.2-.9-.9-1.5-1.7-1.5-.8 0-1.6.6-1.7 1.5h3.4zm2.6-2.3h1v.7c.2-.2.7-.8 1.7-.8.7 0 1.3.3 1.7.8.3.4.3.9.3 1.6v3.6h-1v-3.6c0-.3 0-.8-.3-1.1-.2-.3-.5-.4-1-.4-.3 0-.7.1-1 .4-.4.5-.4 1.1-.4 1.6v3h-1v-5.8zm7.6.9v4.9h-1v-4.9h-.6v-.9h.6v-2.1h1v2.1h1v.9h-1zM229.7 51c0-.8.1-1.5.6-2 .5-.6 1.2-.7 1.7-.7 1.1 0 2.2.7 2.2 2.5v.8h3.5v.9h-8V51zm3.7.6v-.7c0-1.1-.5-1.7-1.5-1.7-1.3 0-1.4 1.2-1.4 1.8v.7h2.9v-.1zm-3.7-5.9c0-.5 0-1.3.4-1.9.3-.5.9-.9 1.8-.9 1.2 0 2.1.8 2.2 2l3.6-2.5v1.1l-3.5 2.4v.2h3.5v.9h-8v-1.3zm3.7.4v-.6c0-1.1-.5-1.8-1.5-1.8-.4 0-.9.1-1.2.6-.2.4-.2.8-.2 1.2v.5h2.9v.1zm.3-4.7c-2.4 0-4.1-1.9-4.1-4.2 0-2.3 1.8-4.2 4.1-4.2 2.4 0 4.1 1.8 4.1 4.2 0 2.4-1.7 4.2-4.1 4.2zm0-.9c1.8 0 3.3-1.5 3.3-3.3 0-1.8-1.5-3.3-3.3-3.3-1.8 0-3.3 1.5-3.3 3.3 0 1.8 1.5 3.3 3.3 3.3z"/></g><defs><clipPath id="clip0"><path fill="#fff" transform="translate(.7 .487)" d="M0 0h238.3v83.8H0z"/></clipPath></defs></svg>