<svg width="27" height="22" viewBox="0 0 27 22" fill="none" xmlns="http://www.w3.org/2000/svg">
<path d="M10.6875 0.569033C10.9981 0.568451 11.2504 0.819889 11.251 1.13055C11.2512 1.28031 11.1918 1.42401 11.0857 1.5298L1.3578 11.2565L11.0857 20.9832C11.3015 21.2067 11.2953 21.5628 11.0719 21.7786C10.8539 21.9892 10.5083 21.9892 10.2904 21.7786L0.165365 11.6536C-0.0542202 11.434 -0.0542202 11.0779 0.165365 10.8582L10.2904 0.733246C10.3957 0.628094 10.5385 0.569033 10.6875 0.569033Z" fill="black"/>
<path d="M0.562515 10.6934L26.4375 10.6934C26.7481 10.6934 27 10.9452 27 11.2558C27 11.5665 26.7481 11.8184 26.4375 11.8184L0.562462 11.8184C0.251804 11.8184 -5.33837e-05 11.5665 -5.33566e-05 11.2558C7.6335e-08 10.9452 0.251858 10.6934 0.562515 10.6934Z" fill="black"/>
</svg>
