<svg width="27" height="22" viewBox="0 0 27 22" fill="none" xmlns="http://www.w3.org/2000/svg">
<path d="M16.3125 21.931C16.0019 21.9315 15.7496 21.6801 15.749 21.3695C15.7488 21.2197 15.8082 21.076 15.9143 20.9702L25.6422 11.2435L15.9143 1.51676C15.6985 1.29332 15.7047 0.937205 15.9281 0.721363C16.1461 0.510848 16.4917 0.510848 16.7096 0.721363L26.8346 10.8464C27.0542 11.066 27.0542 11.4221 26.8346 11.6418L16.7096 21.7668C16.6043 21.8719 16.4615 21.931 16.3125 21.931Z" fill="white"/>
<path d="M26.4375 11.8066H0.562518C0.251859 11.8066 0 11.5548 0 11.2442C0 10.9335 0.251859 10.6816 0.562518 10.6816H26.4375C26.7482 10.6816 27.0001 10.9335 27.0001 11.2442C27 11.5548 26.7481 11.8066 26.4375 11.8066Z" fill="white"/>
</svg>
