<svg width="76" height="76" viewBox="0 0 76 76" fill="none" xmlns="http://www.w3.org/2000/svg">
<g clip-path="url(#clip0)">
<path d="M49.0054 61.8977C47.4085 59.8151 45.5461 58.0579 43.6114 56.4417C48.7935 52.1038 53.3918 46.785 53.3918 38C53.3918 33.1096 51.957 28.8611 49.0054 25.0117C47.4087 22.9293 45.5461 21.1719 43.6108 19.5553C48.8142 15.1935 53.3916 9.84348 53.3916 1.11328C53.3916 0.498453 52.8932 0 52.2783 0C51.6635 0 51.1651 0.498453 51.1651 1.11328C51.1651 9.49584 46.4716 14.3245 41.8469 18.1272C41.2773 17.6776 40.7066 17.2351 40.1393 16.7954C34.5464 12.4613 30.0693 8.9919 29.6294 2.22656H46.3748C46.2865 3.72712 45.9819 5.36527 45.1388 7.1394H35.6201C35.0053 7.1394 34.5068 7.63785 34.5068 8.25268C34.5068 8.86751 35.0053 9.36596 35.6201 9.36596H43.8242C43.0605 10.4448 42.0785 11.5677 40.8142 12.7353C40.3627 13.1526 40.3346 13.8569 40.7517 14.3086C41.1688 14.7602 41.873 14.7881 42.325 14.3711C45.4438 11.4904 48.6323 7.66264 48.6323 1.11343C48.6323 0.498601 48.1338 0.000148438 47.519 0.000148438H28.4807C27.8659 0.000148438 27.3674 0.498601 27.3674 1.11343C27.3674 9.71509 32.9089 14.0092 38.7762 18.556C41.7731 20.8788 44.8722 23.2806 47.2384 26.3667C49.8808 29.8126 51.1652 33.6181 51.1652 38.0001C51.1652 41.8387 50.1944 45.2007 48.1975 48.278C46.4058 51.0389 44.0211 53.2243 41.8472 55.0141C41.2775 54.5644 40.7067 54.1219 40.1394 53.6823C40.0254 53.5939 39.9129 53.5067 39.7999 53.4191C44.7242 49.4456 48.6323 45.3358 48.6323 38.0001C48.6323 29.3985 43.0908 25.1043 37.2235 20.5576C34.2266 18.2348 31.1275 15.8329 28.7612 12.7469C26.1188 9.3008 24.8345 5.4953 24.8345 1.11328C24.8345 0.498453 24.336 0 23.7212 0C23.1064 0 22.6079 0.498453 22.6079 1.11328C22.6079 6.0037 24.0427 10.2521 26.9942 14.1016C28.591 16.184 30.4537 17.9415 32.3889 19.5581C27.1963 23.9076 22.6079 29.2414 22.6079 38C22.6079 42.8906 24.0429 47.1393 26.9945 50.9889C28.5914 53.0714 30.4539 54.8287 32.3886 56.4448C27.1948 60.7954 22.6079 66.131 22.6079 74.8867C22.6079 75.5015 23.1064 76 23.7212 76C24.336 76 24.8345 75.5015 24.8345 74.8867C24.8345 66.4742 29.5419 61.6632 34.1525 57.8728C34.7222 58.3224 35.2929 58.7649 35.8603 59.2046C41.4532 63.5387 45.9304 67.0081 46.3702 73.7734H29.6248C29.7132 72.2729 30.0178 70.6347 30.8609 68.8606H40.3796C40.9944 68.8606 41.4929 68.3621 41.4929 67.7473C41.4929 67.1325 40.9944 66.634 40.3796 66.634H32.1754C32.9392 65.5552 33.9212 64.4323 35.1853 63.2647C35.6369 62.8475 35.6649 62.1432 35.2477 61.6915C34.8305 61.24 34.1264 61.2119 33.6745 61.6292C30.5557 64.5097 27.3674 68.3375 27.3674 74.8867C27.3674 75.5015 27.8659 76 28.4807 76H47.519C48.1338 76 48.6323 75.5015 48.6323 74.8867C48.6323 66.2851 43.0908 61.9909 37.2241 57.4447C34.2271 55.1223 31.1282 52.7207 28.7614 49.6341C26.1189 46.1878 24.8345 42.3823 24.8345 38C24.8345 29.5842 29.5439 24.7751 34.1526 20.9861C34.7222 21.4357 35.2929 21.8782 35.8603 22.3179C35.9743 22.4062 36.0869 22.4936 36.2 22.5812C31.2724 26.559 27.3676 30.6782 27.3676 38C27.3676 46.6017 32.909 50.8958 38.7757 55.442C41.7727 57.7645 44.8716 60.166 47.2384 63.2526C49.8809 66.6987 51.1655 70.5044 51.1655 74.8866C51.1655 75.5014 51.664 75.9998 52.2788 75.9998C52.8936 75.9998 53.3921 75.5014 53.3921 74.8866C53.3921 69.996 51.9571 65.7473 49.0054 61.8977ZM38.0006 23.9912C40.3359 25.8504 42.3724 27.6478 43.8567 29.7475H32.1495C33.6379 27.642 35.6775 25.8421 38.0006 23.9912ZM30.8521 31.9739H45.1551C45.8237 33.4198 46.2461 35.0304 46.3671 36.8867H29.6318C29.7537 35.032 30.1807 33.4217 30.8521 31.9739ZM29.6327 39.1133H46.368C46.2464 40.9692 45.8203 42.5793 45.1501 44.0261H30.8446C30.176 42.58 29.7537 40.9696 29.6327 39.1133ZM37.9989 52.0089C35.6636 50.1498 33.6273 48.3523 32.1428 46.2527H43.8533C42.3643 48.3593 40.323 50.1576 37.9989 52.0089Z" fill="#0376C4"/>
</g>
<defs>
<clipPath id="clip0">
<rect width="76" height="76" fill="white"/>
</clipPath>
</defs>
</svg>
