<svg width="23" height="23" viewBox="0 0 23 23" fill="none" xmlns="http://www.w3.org/2000/svg">
<path d="M22.8538 11.0526C22.6483 10.7715 17.7526 4.17029 11.4999 4.17029C5.24715 4.17029 0.3512 10.7715 0.145951 11.0523C-0.0486505 11.319 -0.0486505 11.6807 0.145951 11.9473C0.3512 12.2284 5.24715 18.8296 11.4999 18.8296C17.7526 18.8296 22.6483 12.2283 22.8538 11.9475C23.0487 11.6809 23.0487 11.319 22.8538 11.0526ZM11.4999 17.3132C6.89408 17.3132 2.90497 12.9318 1.7241 11.4994C2.90344 10.0658 6.8842 5.68676 11.4999 5.68676C16.1055 5.68676 20.0943 10.0674 21.2757 11.5005C20.0963 12.934 16.1156 17.3132 11.4999 17.3132Z" fill="white"/>
<path d="M11.4999 6.95056C8.99138 6.95056 6.95044 8.9915 6.95044 11.5C6.95044 14.0086 8.99138 16.0495 11.4999 16.0495C14.0084 16.0495 16.0494 14.0086 16.0494 11.5C16.0494 8.9915 14.0084 6.95056 11.4999 6.95056ZM11.4999 14.533C9.82747 14.533 8.46696 13.1724 8.46696 11.5C8.46696 9.82763 9.82751 8.46708 11.4999 8.46708C13.1723 8.46708 14.5329 9.82763 14.5329 11.5C14.5329 13.1724 13.1724 14.533 11.4999 14.533Z" fill="white"/>
</svg>
