<svg width="76" height="76" viewBox="0 0 76 76" fill="none" xmlns="http://www.w3.org/2000/svg">
<path d="M39.4378 73.9459C36.7196 73.9562 34.0209 73.4864 31.466 72.5584C22.307 69.2011 16.1972 63.9139 13.3082 56.8449C8.56638 45.2395 14.1965 33.1452 14.4379 32.6369C14.5276 32.4477 14.6731 32.2905 14.8547 32.1863C15.0363 32.0821 15.2454 32.0359 15.454 32.0539C15.6626 32.0718 15.8608 32.1532 16.0219 32.2869C16.1829 32.4207 16.2993 32.6005 16.3554 32.8022C17.1811 35.1493 18.6381 37.2233 20.5662 38.7959C22.917 26.9975 33.2089 19.8576 33.6659 19.5443C40.3066 14.2284 34.8829 3.66648 34.8275 3.5607C34.718 3.35141 34.684 3.11077 34.7312 2.87934C34.7784 2.6479 34.904 2.43982 35.0867 2.29014C35.2694 2.14047 35.4981 2.05835 35.7343 2.05762C35.9705 2.0569 36.1998 2.13761 36.3834 2.28616C54.6717 17.1267 53.62 32.0741 52.1442 38.2157C53.5179 37.1402 54.5851 35.7228 55.239 34.1054C55.8929 32.4879 56.1106 30.7271 55.8702 28.9991C55.838 28.7694 55.8845 28.5355 56.0022 28.3356C56.1199 28.1357 56.3018 27.9815 56.5183 27.8981C56.7348 27.8148 56.9731 27.8072 57.1944 27.8766C57.4158 27.9459 57.6072 28.0882 57.7374 28.2802C59.7221 31.3735 61.3335 34.6909 62.5377 38.1633C64.1261 42.7113 64.5171 47.5915 63.6731 52.3344C62.8292 57.0773 60.7786 61.5231 57.7189 65.2439L57.4991 65.512C55.2992 68.1655 52.5384 70.2983 49.4153 71.7566C46.2922 73.215 42.8846 73.9627 39.4378 73.9459ZM32.1726 70.6297C34.5012 71.4747 36.9606 71.902 39.4378 71.8919C42.581 71.9075 45.6886 71.2263 48.537 69.8973C51.3855 68.5683 53.904 66.6244 55.9113 64.2056L56.1167 63.9489C58.9546 60.5001 60.8572 56.379 61.6415 51.9821C62.4257 47.5852 62.0652 43.0604 60.5945 38.8432C59.8316 36.6728 58.9089 34.562 57.8339 32.528C56.7042 38.7076 50.7916 41.5812 50.7197 41.6151C50.5283 41.7057 50.3137 41.7349 50.1051 41.6988C49.8965 41.6627 49.7041 41.563 49.5544 41.4133C49.4046 41.2637 49.3048 41.0714 49.2685 40.8628C49.2322 40.6543 49.2613 40.4396 49.3517 40.2482C49.6762 39.5518 56.7463 23.713 38.1365 6.51957C39.3238 10.6349 40.0335 17.0712 34.8798 21.1937C34.7083 21.3149 23.8013 28.9026 22.3121 40.8099C22.2898 40.9841 22.2232 41.1496 22.1187 41.2907C22.0142 41.4318 21.8753 41.5437 21.7152 41.6159C21.5551 41.688 21.3792 41.7178 21.2043 41.7026C21.0294 41.6874 20.8613 41.6276 20.7161 41.5289C18.5694 40.0067 16.7612 38.0565 15.4054 35.8011C14.0569 39.7459 11.9741 48.1676 15.2143 56.0757C17.8784 62.5819 23.5836 67.4757 32.1716 70.6245L32.1726 70.6297Z" fill="#0376C4"/>
<path d="M35.0617 73.5269C34.8197 73.5269 34.5854 73.4414 34.4003 73.2856C21.3129 62.2532 30.5335 48.145 30.628 48.0043C30.7475 47.8258 30.9199 47.6893 31.1211 47.6139C31.3222 47.5386 31.5419 47.5282 31.7492 47.5842C31.9566 47.6402 32.1411 47.7598 32.277 47.9261C32.4128 48.0925 32.493 48.2973 32.5064 48.5116C32.5324 50.0874 33.0979 51.6067 34.1086 52.8159C33.5759 48.942 34.1421 44.9964 35.7428 41.4287C37.3434 37.861 39.9141 34.8146 43.1618 32.6369C43.3538 32.5252 43.5769 32.4787 43.7975 32.5045C44.0182 32.5303 44.2245 32.6269 44.3855 32.7799C44.5466 32.9329 44.6537 33.1339 44.6909 33.3529C44.728 33.5719 44.6931 33.7971 44.5915 33.9946C44.0249 35.0643 43.74 36.2608 43.7637 37.4711C43.8168 38.8794 44.2637 40.2446 45.0536 41.4118L45.4644 42.0393C46.8253 44.0596 48.2998 46.0011 49.8807 47.8543C51.1111 49.3428 52.0954 51.0185 52.7964 52.8179C57.9438 63.4302 49.0991 71.7953 49.0128 71.8796C48.8122 72.0592 48.5491 72.1528 48.2802 72.1404C48.0112 72.1279 47.7579 72.0103 47.5748 71.8129C47.3917 71.6155 47.2934 71.3541 47.3011 71.085C47.3088 70.8159 47.4219 70.5605 47.6161 70.3739C47.9375 70.0741 55.4471 62.9177 50.9262 53.6693C50.9085 53.633 50.8931 53.5956 50.8799 53.5574C50.2576 51.9667 49.3868 50.4847 48.3001 49.1669C46.6684 47.2539 45.147 45.2497 43.7431 43.1639L43.3323 42.5364C42.3318 41.0472 41.7689 39.3073 41.7076 37.5142C41.6994 37.114 41.7172 36.7136 41.761 36.3157C38.8031 39.1123 34.4691 45.0659 36.5129 54.8022C36.5496 54.9768 36.5403 55.1579 36.4858 55.3278C36.4312 55.4977 36.3333 55.6504 36.2018 55.771C36.0703 55.8916 35.9096 55.9758 35.7356 56.0153C35.5616 56.0549 35.3803 56.0484 35.2096 55.9966C34.2294 55.6214 33.3459 55.0311 32.6243 54.2691C31.9026 53.5071 31.3612 52.5928 31.0398 51.5937C29.2179 55.7429 27.0344 64.3915 35.7221 71.7173C35.8833 71.853 35.9988 72.035 36.053 72.2386C36.1073 72.4422 36.0976 72.6576 36.0253 72.8555C35.9529 73.0534 35.8215 73.2243 35.6487 73.3449C35.476 73.4656 35.2703 73.5302 35.0596 73.53L35.0617 73.5269Z" fill="#0376C4"/>
</svg>
