<svg width="57" height="72" viewBox="0 0 57 72" fill="none" xmlns="http://www.w3.org/2000/svg">
<path d="M55.3528 14.578L28.2921 0.158652C27.8907 -0.0556084 27.4095 -0.0526014 27.0111 0.16617L0.699165 14.5855C0.267637 14.8223 0 15.2749 0 15.7673V34.6027C0.0157876 50.0858 9.18914 64.0932 23.3754 70.2962L27.0276 71.8877C27.3689 72.0366 27.7576 72.0373 28.0997 71.8892L32.215 70.112C46.6644 64.0436 56.0648 49.9009 56.0663 34.229V15.7673C56.0663 15.2696 55.7919 14.8118 55.3528 14.578ZM53.3719 34.229C53.3689 48.8205 44.6143 61.9867 31.1602 67.6334L31.1512 67.6379L27.5674 69.1851L24.4535 67.8266C11.2483 62.0528 2.7087 49.0153 2.69367 34.6027V16.565L27.6674 2.87788L53.3719 16.5747V34.229Z" fill="#0376C4"/>
<path d="M48.742 19.694L28.2072 8.78314C27.9026 8.62101 27.5374 8.62328 27.2351 8.78882L7.26853 19.6997C6.94107 19.8789 6.73798 20.2214 6.73798 20.594V34.8464C6.74996 46.5623 13.7111 57.1614 24.4762 61.8552L27.2476 63.0594C27.5066 63.1721 27.8016 63.1726 28.0612 63.0606L31.184 61.7158C42.1488 57.1239 49.2822 46.4223 49.2834 34.5637V20.594C49.2834 20.2174 49.0751 19.871 48.742 19.694ZM47.2387 34.5637C47.2364 45.6049 40.5931 55.5674 30.3836 59.8402L30.3768 59.8436L27.6572 61.0144L25.2943 59.9864C15.2736 55.6175 8.79345 45.7522 8.78204 34.8464V21.1976L27.7331 10.8407L47.2387 21.2049V34.5637Z" fill="#0376C4"/>
<rect x="26.9518" y="27.3369" width="2.31016" height="17.1337" rx="1.15508" fill="#0376C4"/>
<rect x="19.4438" y="37.155" width="2.31016" height="17.1337" rx="1.15508" transform="rotate(-90 19.4438 37.155)" fill="#0376C4"/>
</svg>
