<svg width="21" height="15" viewBox="0 0 21 15" fill="none" xmlns="http://www.w3.org/2000/svg">
<path d="M20.1075 1.39125C19.5379 0.378 18.9197 0.191625 17.661 0.12075C16.4036 0.0354375 13.2418 0 10.5026 0C7.75819 0 4.59506 0.0354376 3.339 0.119438C2.08294 0.191625 1.46344 0.376687 0.888563 1.39125C0.301875 2.40319 0 4.14619 0 7.21481C0 7.21744 0 7.21875 0 7.21875C0 7.22137 0 7.22269 0 7.22269V7.22531C0 10.2808 0.301875 12.0369 0.888563 13.0384C1.46344 14.0516 2.08162 14.2354 3.33769 14.3207C4.59506 14.3942 7.75819 14.4375 10.5026 14.4375C13.2418 14.4375 16.4036 14.3942 17.6623 14.322C18.921 14.2367 19.5392 14.0529 20.1088 13.0397C20.7008 12.0383 21 10.2821 21 7.22662C21 7.22662 21 7.22269 21 7.22006C21 7.22006 21 7.21744 21 7.21613C21 4.14619 20.7008 2.40319 20.1075 1.39125ZM7.875 11.1562V3.28125L14.4375 7.21875L7.875 11.1562Z" fill="#EDF5FB"/>
</svg>
