<svg width="239" height="85" viewBox="0 0 239 85" fill="none" xmlns="http://www.w3.org/2000/svg">
<g clip-path="url(#clip0)">
<path d="M73.821 31.5069C66.4338 24.8144 57.4145 20.267 46.5914 17.3497C45.8183 16.0627 47.1927 13.9177 46.5914 12.6306C46.3337 12.03 45.5606 11.8584 44.9593 12.1158C43.3273 12.9738 41.867 15.2047 40.7504 16.7491C27.1785 17.0923 18.6746 22.841 12.8336 31.0779C9.91307 35.1964 7.76563 40.3445 7.16434 46.5222C6.47716 52.9573 8.02332 59.3924 10.3426 64.2831C14.7233 73.5496 23.2272 80.4995 34.3939 82.473C47.7081 84.7896 58.1017 79.1267 64.544 72.1768C64.7158 71.9194 64.7158 71.662 64.4581 71.4046C63.771 70.804 62.6543 70.8898 61.9671 71.4904C55.7825 77.4965 46.7632 82.3014 34.8234 80.1563C24.9452 78.5261 16.699 72.091 12.5759 63.4251C10.3426 58.7918 9.05409 53.0431 9.56948 47.2944C9.99897 41.5457 11.8887 36.7408 14.6374 32.794C19.9631 24.986 29.0683 18.7225 42.2106 19.2373C42.6401 17.7787 43.4991 16.1485 44.3581 15.4621C44.2722 16.7491 44.5299 17.7787 44.7017 18.8941C54.8376 21.8114 64.0286 25.5866 71.0723 31.5927C71.8453 32.2792 73.821 33.652 73.7351 34.51C73.6492 35.1964 72.2748 35.797 71.8453 36.4834C70.9864 37.7704 71.1581 39.2291 69.8697 39.5723C69.0107 39.8297 67.4646 39.3149 66.1761 39.0575C62.3966 38.1995 59.3043 36.655 55.4389 36.3976C51.7453 36.1402 49.5978 37.6846 47.4504 38.8001C45.9901 39.5723 44.5299 40.1729 42.8119 40.4303C39.1183 41.0309 35.3388 39.8297 33.1914 37.8562C32.7619 37.4272 31.7311 35.1106 30.7862 35.9686C30.3567 36.3976 31.2157 37.6846 31.4734 38.1136C32.2465 39.2291 32.5042 39.4865 33.1055 40.0013C35.167 41.7173 39.6337 43.3475 43.8427 42.5753C47.4504 41.8889 50.5427 39.4865 54.3222 39.1433C57.5004 38.8859 60.6786 39.6581 63.0838 40.2587C65.403 40.8593 68.8389 42.3179 71.2441 41.3741C72.6184 40.8593 72.8761 39.4007 73.821 38.0278C74.5941 36.9982 75.8825 36.3118 75.9684 35.0248C76.2261 33.652 74.8518 32.4508 73.821 31.5069Z" fill="white" stroke="white" stroke-miterlimit="10"/>
<path d="M99.3 29.6V35.6H107.7V40.2H99.3V47.5H108V52.1H94V25H108V29.6H99.3Z" fill="white"/>
<path d="M136.6 34.5V44.1C136.6 44.7 136.6 45.2 136.7 45.7C136.8 46.2 136.9 46.6 137.1 47.1C137.3 47.5 137.6 47.9 138 48.1C138.4 48.4 138.9 48.5 139.5 48.5C140.1 48.5 140.6 48.4 141 48.1C141.4 47.8 141.7 47.5 141.9 47.1C142.1 46.7 142.2 46.2 142.3 45.7C142.4 45.2 142.4 44.7 142.4 44.1V34.5H147.4V44.9C147.4 50.1 144.8 52.7 139.5 52.7C134.2 52.7 131.6 50.1 131.6 44.9V34.5H136.6Z" fill="white"/>
<path d="M155.8 24.9C156.4 25.5 156.7 26.2 156.7 27C156.7 27.8 156.4 28.5 155.8 29.1C155.2 29.7 154.5 30 153.7 30C152.9 30 152.2 29.7 151.6 29.1C151 28.5 150.7 27.9 150.7 27C150.7 26.2 151 25.5 151.6 24.9C152.2 24.3 152.9 24 153.7 24C154.5 24.1 155.3 24.4 155.8 24.9ZM156.3 52.1H151.3V34.5H156.3V52.1Z" fill="white"/>
<path d="M169 52.1H163.7V29.6H158.2V25H174.4V29.6H168.9V52.1H169Z" fill="white"/>
<path d="M178.5 36.3C179.6 34.7 181.1 33.9 183 33.9C183.6 33.9 184.3 34 185.1 34.3L184.5 39C183.9 38.6 183.2 38.4 182.4 38.4C181.6 38.4 180.9 38.6 180.4 38.9C179.9 39.2 179.5 39.7 179.2 40.2C178.9 40.8 178.8 41.4 178.7 42C178.6 42.6 178.6 43.4 178.6 44.2V52.2H173.6V34.5H178.6V36.3H178.5Z" fill="white"/>
<path d="M198.5 34.6C199.6 35.1 200.6 35.7 201.5 36.6C202.3 37.5 203 38.5 203.4 39.6C203.8 40.8 204.1 42 204.1 43.4C204.1 44.8 203.9 46 203.4 47.2C203 48.3 202.3 49.3 201.5 50.2C200.7 51.1 199.7 51.7 198.5 52.2C197.3 52.7 196.1 52.9 194.7 52.9C193.3 52.9 192.1 52.7 190.9 52.2C189.8 51.7 188.8 51.1 187.9 50.2C187.1 49.3 186.4 48.4 186 47.2C185.6 46.1 185.3 44.8 185.3 43.4C185.3 42 185.5 40.8 186 39.6C186.4 38.4 187.1 37.4 187.9 36.6C188.7 35.7 189.7 35.1 190.9 34.6C192 34.1 193.3 33.9 194.7 33.9C196.1 33.9 197.3 34.1 198.5 34.6ZM191.7 39.9C190.9 40.9 190.5 42.1 190.5 43.4C190.5 44.7 190.9 45.8 191.7 46.8C192.5 47.8 193.5 48.3 194.7 48.3C195.9 48.3 196.9 47.8 197.7 46.8C198.5 45.8 198.9 44.7 198.9 43.4C198.9 42.1 198.5 41 197.7 39.9C196.9 38.9 195.9 38.4 194.7 38.4C193.5 38.3 192.5 38.9 191.7 39.9Z" fill="white"/>
<path d="M211.4 36.1C212 35.4 212.6 34.8 213.4 34.4C214.2 34 215.1 33.9 216 33.9C217.2 33.9 218.1 34.1 218.9 34.5C219.7 34.9 220.3 35.4 220.8 36.1C221.3 36.8 221.6 37.6 221.8 38.5C222 39.4 222.1 40.4 222.1 41.5V52.3H217.1V42.9C217.1 42.1 217.1 41.5 217 40.9C217 40.4 216.8 39.9 216.7 39.4C216.6 38.9 216.3 38.6 215.9 38.4C215.5 38.2 215 38 214.4 38C213.7 38 213.1 38.2 212.7 38.5C212.3 38.8 212 39.3 211.8 39.8C211.6 40.3 211.5 40.9 211.4 41.5C211.4 42.1 211.3 42.7 211.3 43.4V52.1H206.3V34.5H211.3V36.1H211.4Z" fill="white"/>
<path d="M117.86 51.21C119.492 51.21 121.732 50.698 123.108 48.874V56.97H128.068V34.73H123.108V36.906C121.732 35.082 119.492 34.57 117.86 34.57C113.828 34.57 110.66 37.386 110.66 42.89C110.66 48.074 113.828 51.21 117.86 51.21ZM119.364 38.474C121.764 38.474 123.108 40.33 123.108 42.89C123.108 45.482 121.764 47.306 119.364 47.306C116.964 47.306 115.62 45.482 115.62 42.89C115.62 40.33 116.964 38.474 119.364 38.474Z" fill="white"/>
<path d="M94.3 70.8H99.1001V67H100.1V76.3H99.1001V71.7H94.3V76.3H93.3V67H94.3V70.8Z" fill="white"/>
<path d="M102.8 67.6C103.2 67.6 103.5 67.9 103.5 68.3C103.5 68.7 103.2 69 102.8 69C102.4 69 102.1 68.7 102.1 68.3C102.1 67.9 102.4 67.6 102.8 67.6ZM103.3 70.5V76.3H102.3V70.5H103.3Z" fill="white"/>
<path d="M109.7 70.5H110.7V76.2C110.7 76.8 110.7 77.7 110.1 78.5C109.7 79.1 108.9 79.6 107.8 79.6C106.8 79.6 106.1 79.2 105.7 78.8C105.3 78.4 104.9 77.8 104.9 76.9H105.9C105.9 77.4 106.1 77.8 106.3 78.1C106.7 78.6 107.3 78.7 107.7 78.7C108.4 78.7 108.9 78.4 109.2 77.9C109.5 77.4 109.5 76.9 109.5 76.4V75.6C109.2 76 108.5 76.6 107.5 76.6C106.6 76.6 106 76.3 105.5 75.8C105.1 75.4 104.7 74.7 104.7 73.5C104.7 72.4 105.1 71.7 105.5 71.2C106 70.7 106.7 70.4 107.5 70.4C108.4 70.4 109 70.8 109.5 71.4V70.5H109.7ZM106.5 71.8C106 72.3 105.9 72.9 105.9 73.4C105.9 73.9 106 74.6 106.6 75.1C106.9 75.4 107.3 75.6 107.8 75.6C108.3 75.6 108.8 75.4 109.1 75.1C109.5 74.7 109.8 74.1 109.8 73.4C109.8 72.7 109.5 72.1 109.2 71.8C108.9 71.5 108.4 71.3 107.9 71.3C107.2 71.3 106.8 71.5 106.5 71.8Z" fill="white"/>
<path d="M112.6 66.1H113.6V71.2C113.8 71 114.3 70.4 115.3 70.4C116 70.4 116.6 70.7 117 71.2C117.3 71.6 117.3 72.1 117.3 72.8V76.4H116.3V72.8C116.3 72.5 116.3 72 116 71.7C115.8 71.4 115.5 71.3 115 71.3C114.6 71.3 114.3 71.4 114 71.7C113.6 72.2 113.6 72.8 113.6 73.3V76.3H112.6V66.1Z" fill="white"/>
<path d="M127.5 68H123.7V70.8H127.4V71.8H123.7V75.4H127.5V76.4H122.7V67.1H127.5V68Z" fill="white"/>
<path d="M129.2 70.5H130.2V71.2C130.4 71 130.9 70.4 131.9 70.4C132.6 70.4 133.2 70.7 133.6 71.2C133.9 71.6 133.9 72.1 133.9 72.8V76.4H132.9V72.8C132.9 72.5 132.9 72 132.6 71.7C132.4 71.4 132.1 71.3 131.6 71.3C131.2 71.3 130.9 71.4 130.6 71.7C130.2 72.2 130.2 72.8 130.2 73.3V76.3H129.2V70.5Z" fill="white"/>
<path d="M140.9 74.7999C140.7 75.0999 140.5 75.4999 140.2 75.6999C139.7 76.1999 139 76.3999 138.3 76.3999C136.9 76.3999 135.4 75.4999 135.4 73.3999C135.4 71.6999 136.5 70.2999 138.2 70.2999C139.3 70.2999 140 70.8999 140.4 71.3999C140.8 71.8999 141 72.7999 140.9 73.5999H136.4C136.4 74.7999 137.2 75.5999 138.2 75.5999C138.7 75.5999 139.1 75.4999 139.4 75.1999C139.7 74.9999 139.9 74.6999 140 74.3999L140.9 74.7999ZM139.9 72.7999C139.7 71.8999 139 71.2999 138.2 71.2999C137.4 71.2999 136.6 71.8999 136.5 72.7999H139.9Z" fill="white"/>
<path d="M142.5 70.4999H143.5V71.0999C143.6 70.8999 144 70.2999 144.8 70.2999C145.1 70.2999 145.4 70.3999 145.7 70.4999L145.2 71.3999C145 71.1999 144.8 71.1999 144.6 71.1999C144.2 71.1999 143.9 71.3999 143.8 71.5999C143.6 71.7999 143.5 72.1999 143.5 73.1999V76.2999H142.5V70.4999Z" fill="white"/>
<path d="M150.8 70.5H151.8V76.2C151.8 76.8 151.8 77.7 151.2 78.5C150.8 79.1 150 79.6 148.9 79.6C147.9 79.6 147.2 79.2 146.8 78.8C146.4 78.4 146 77.8 146 76.9H147C147 77.4 147.2 77.8 147.4 78.1C147.8 78.6 148.4 78.7 148.8 78.7C149.5 78.7 150 78.4 150.3 77.9C150.6 77.4 150.6 76.9 150.6 76.4V75.6C150.3 76 149.6 76.6 148.6 76.6C147.7 76.6 147.1 76.3 146.6 75.8C146.2 75.4 145.8 74.7 145.8 73.5C145.8 72.4 146.2 71.7 146.6 71.2C147.1 70.7 147.8 70.4 148.6 70.4C149.5 70.4 150.1 70.8 150.6 71.4V70.5H150.8ZM147.6 71.8C147.1 72.3 147 72.9 147 73.4C147 73.9 147.1 74.6 147.7 75.1C148 75.4 148.4 75.6 148.9 75.6C149.4 75.6 149.9 75.4 150.2 75.1C150.6 74.7 150.9 74.1 150.9 73.4C150.9 72.7 150.6 72.1 150.3 71.8C150 71.5 149.5 71.3 149 71.3C148.3 71.3 147.9 71.5 147.6 71.8Z" fill="white"/>
<path d="M155.5 75.8L152.8 70.5H153.9L156 74.7L157.9 70.5H159L154.7 79.5H153.7L155.5 75.8Z" fill="white"/>
<path d="M170.8 69C170.5 68.7 170.1 68.4 169.6 68.1C169.1 67.9 168.5 67.7 168 67.7C165.8 67.7 164.2 69.3999 164.2 71.5999C164.2 74.0999 166.3 75.4 168 75.4C168.6 75.4 169.2 75.2 169.7 75C170.2 74.7 170.6 74.4 170.8 74.2V75.5C169.8 76.2 168.7 76.4 168 76.4C165.2 76.4 163.2 74.2999 163.2 71.5999C163.2 68.7999 165.3 66.7 168.1 66.7C168.7 66.7 169.7 66.8 170.9 67.6V69H170.8Z" fill="white"/>
<path d="M177.6 74.7999C177.4 75.0999 177.2 75.4999 176.9 75.6999C176.4 76.1999 175.7 76.3999 175 76.3999C173.6 76.3999 172.1 75.4999 172.1 73.3999C172.1 71.6999 173.2 70.2999 174.9 70.2999C176 70.2999 176.7 70.8999 177.1 71.3999C177.5 71.8999 177.7 72.7999 177.6 73.5999H173.1C173.1 74.7999 173.9 75.5999 174.9 75.5999C175.4 75.5999 175.8 75.4999 176.1 75.1999C176.4 74.9999 176.6 74.6999 176.7 74.3999L177.6 74.7999ZM176.6 72.7999C176.4 71.8999 175.7 71.2999 174.9 71.2999C174.1 71.2999 173.3 71.8999 173.2 72.7999H176.6Z" fill="white"/>
<path d="M180.2 66.1V76.3H179.2V66.1H180.2Z" fill="white"/>
<path d="M183.1 66.1V76.3H182.1V66.1H183.1Z" fill="white"/>
<path d="M190.8 68V76.4H189.8V68H187.5V67H193.1V68H190.8Z" fill="white"/>
<path d="M193.2 70.4999H194.2V71.0999C194.3 70.8999 194.7 70.2999 195.5 70.2999C195.8 70.2999 196.1 70.3999 196.4 70.4999L195.9 71.3999C195.7 71.1999 195.5 71.1999 195.3 71.1999C194.9 71.1999 194.6 71.3999 194.5 71.5999C194.3 71.7999 194.2 72.1999 194.2 73.1999V76.2999H193.2V70.4999Z" fill="white"/>
<path d="M202.2 74.7999C202 75.0999 201.8 75.4999 201.5 75.6999C201 76.1999 200.3 76.3999 199.6 76.3999C198.2 76.3999 196.7 75.4999 196.7 73.3999C196.7 71.6999 197.8 70.2999 199.5 70.2999C200.6 70.2999 201.3 70.8999 201.7 71.3999C202.1 71.8999 202.3 72.7999 202.2 73.5999H197.7C197.7 74.7999 198.5 75.5999 199.5 75.5999C200 75.5999 200.4 75.4999 200.7 75.1999C201 74.9999 201.2 74.6999 201.3 74.3999L202.2 74.7999ZM201.2 72.7999C201 71.8999 200.3 71.2999 199.5 71.2999C198.7 71.2999 197.9 71.8999 197.8 72.7999H201.2Z" fill="white"/>
<path d="M208.2 70.5H209.2V76.3H208.2V75.5C207.9 75.9 207.2 76.5 206.2 76.5C204.7 76.5 203.4 75.5 203.4 73.4C203.4 71.4 204.7 70.4 206.2 70.4C207.3 70.4 207.9 71 208.2 71.4V70.5ZM204.4 73.4C204.4 74.6 205.1 75.6 206.3 75.6C207.5 75.6 208.2 74.6 208.2 73.4C208.2 71.9 207.2 71.2 206.3 71.2C205.3 71.3 204.4 72 204.4 73.4Z" fill="white"/>
<path d="M212.1 71.4V76.3H211.1V71.4H210.5V70.5H211.1V68.4H212.1V70.5H213.1V71.4H212.1Z" fill="white"/>
<path d="M214.1 70.4999H215.1V71.0999C215.4 70.5999 215.9 70.2999 216.5 70.2999C217.6 70.2999 218 70.9999 218.1 71.1999C218.7 70.2999 219.5 70.2999 219.9 70.2999C221.6 70.2999 221.8 71.6999 221.8 72.5999V76.2999H220.8V72.7999C220.8 72.0999 220.7 71.2999 219.8 71.2999C218.6 71.2999 218.5 72.3999 218.5 73.0999V76.2999H217.5V72.8999C217.5 72.4999 217.5 71.2999 216.5 71.2999C215.4 71.2999 215.2 72.4999 215.2 73.1999V76.3999H214.2V70.4999H214.1Z" fill="white"/>
<path d="M228.8 74.7999C228.6 75.0999 228.4 75.4999 228.1 75.6999C227.6 76.1999 226.9 76.3999 226.2 76.3999C224.8 76.3999 223.3 75.4999 223.3 73.3999C223.3 71.6999 224.4 70.2999 226.1 70.2999C227.2 70.2999 227.9 70.8999 228.3 71.3999C228.7 71.8999 228.9 72.7999 228.8 73.5999H224.3C224.3 74.7999 225.1 75.5999 226.1 75.5999C226.6 75.5999 227 75.4999 227.3 75.1999C227.6 74.9999 227.8 74.6999 227.9 74.3999L228.8 74.7999ZM227.8 72.7999C227.6 71.8999 226.9 71.2999 226.1 71.2999C225.3 71.2999 224.5 71.8999 224.4 72.7999H227.8Z" fill="white"/>
<path d="M230.4 70.5H231.4V71.2C231.6 71 232.1 70.4 233.1 70.4C233.8 70.4 234.4 70.7 234.8 71.2C235.1 71.6 235.1 72.1 235.1 72.8V76.4H234.1V72.8C234.1 72.5 234.1 72 233.8 71.7C233.6 71.4 233.3 71.3 232.8 71.3C232.5 71.3 232.1 71.4 231.8 71.7C231.4 72.2 231.4 72.8 231.4 73.3V76.3H230.4V70.5Z" fill="white"/>
<path d="M238 71.4V76.3H237V71.4H236.4V70.5H237V68.4H238V70.5H239V71.4H238Z" fill="white"/>
<path d="M229.7 51C229.7 50.2 229.8 49.5 230.3 49C230.8 48.4 231.5 48.3 232 48.3C233.1 48.3 234.2 49 234.2 50.8V51.6H237.7V52.5H229.7V51ZM233.4 51.6V50.9C233.4 49.8 232.9 49.2 231.9 49.2C230.6 49.2 230.5 50.4 230.5 51V51.7H233.4V51.6Z" fill="white"/>
<path d="M229.7 45.7C229.7 45.2 229.7 44.4 230.1 43.8C230.4 43.3 231 42.9 231.9 42.9C233.1 42.9 234 43.7 234.1 44.9L237.7 42.4V43.5L234.2 45.9V46.1H237.7V47H229.7V45.7ZM233.4 46.1V45.5C233.4 44.4 232.9 43.7 231.9 43.7C231.5 43.7 231 43.8 230.7 44.3C230.5 44.7 230.5 45.1 230.5 45.5V46H233.4V46.1Z" fill="white"/>
<path d="M233.7 41.4C231.3 41.4 229.6 39.5 229.6 37.2C229.6 34.9 231.4 33 233.7 33C236.1 33 237.8 34.8 237.8 37.2C237.8 39.6 236.1 41.4 233.7 41.4ZM233.7 40.5C235.5 40.5 237 39 237 37.2C237 35.4 235.5 33.9 233.7 33.9C231.9 33.9 230.4 35.4 230.4 37.2C230.4 39 231.9 40.5 233.7 40.5Z" fill="white"/>
</g>
<defs>
<clipPath id="clip0">
<rect width="238.3" height="83.8" fill="white" transform="translate(0.699951 0.486938)"/>
</clipPath>
</defs>
</svg>
